<mxfile host="app.diagrams.net" modified="2024-05-12T19:49:37.070Z" agent="Mozilla/5.0 (Windows NT 10.0; Win64; x64; rv:125.0) Gecko/20100101 Firefox/125.0" version="24.3.1" etag="b9MSOCUFvsoMMtP7GGsi" type="github">
  <diagram name="PÃ¡gina-1" id="oag1SfBk3ODr7wKhGjCs">
    <mxGraphModel>
      <root>
        <mxCell id="0" />
        <mxCell id="1" parent="0" />
      </root>
    </mxGraphModel>
  </diagram>
</mxfile>
